<mxfile host="app.diagrams.net" modified="2022-10-20T06:55:54.218Z" agent="5.0 (Macintosh; Intel Mac OS X 10_15_7) AppleWebKit/605.1.15 (KHTML, like Gecko) Version/14.1.2 Safari/605.1.15" etag="5Lx7Iei6LeuD5xpri9wk" version="20.4.0" type="github">
  <diagram id="HwMOaHkmdxxpqZ9K4Tq0" name="Page-1">
    <mxGraphModel dx="1000" dy="658" grid="1" gridSize="10" guides="1" tooltips="1" connect="1" arrows="1" fold="1" page="1" pageScale="1" pageWidth="827" pageHeight="1169" math="0" shadow="0">
      <root>
        <mxCell id="0" />
        <mxCell id="1" parent="0" />
        <mxCell id="l15-5AjndK2zUUNQ_jJS-1" value="Diagramy przypadków&amp;nbsp;użycia" style="text;html=1;strokeColor=none;fillColor=none;align=center;verticalAlign=middle;whiteSpace=wrap;rounded=0;fontSize=20;fontColor=#5773FF;" vertex="1" parent="1">
          <mxGeometry x="264" y="30" width="296" height="70" as="geometry" />
        </mxCell>
        <mxCell id="l15-5AjndK2zUUNQ_jJS-2" value="Aplikacja bankowa" style="shape=umlFrame;whiteSpace=wrap;html=1;width=176;height=40;" vertex="1" parent="1">
          <mxGeometry x="264" y="110" width="286" height="420" as="geometry" />
        </mxCell>
        <mxCell id="l15-5AjndK2zUUNQ_jJS-15" style="edgeStyle=orthogonalEdgeStyle;rounded=0;orthogonalLoop=1;jettySize=auto;html=1;fontSize=12;fontColor=#5773FF;" edge="1" parent="1" source="l15-5AjndK2zUUNQ_jJS-3" target="l15-5AjndK2zUUNQ_jJS-12">
          <mxGeometry relative="1" as="geometry" />
        </mxCell>
        <mxCell id="l15-5AjndK2zUUNQ_jJS-17" style="edgeStyle=orthogonalEdgeStyle;rounded=0;orthogonalLoop=1;jettySize=auto;html=1;entryX=0;entryY=0.5;entryDx=0;entryDy=0;fontSize=12;fontColor=#5773FF;" edge="1" parent="1" source="l15-5AjndK2zUUNQ_jJS-3" target="l15-5AjndK2zUUNQ_jJS-11">
          <mxGeometry relative="1" as="geometry" />
        </mxCell>
        <mxCell id="l15-5AjndK2zUUNQ_jJS-18" style="edgeStyle=orthogonalEdgeStyle;rounded=0;orthogonalLoop=1;jettySize=auto;html=1;entryX=0;entryY=0.5;entryDx=0;entryDy=0;fontSize=12;fontColor=#5773FF;" edge="1" parent="1" source="l15-5AjndK2zUUNQ_jJS-3" target="l15-5AjndK2zUUNQ_jJS-13">
          <mxGeometry relative="1" as="geometry" />
        </mxCell>
        <mxCell id="l15-5AjndK2zUUNQ_jJS-3" value="&lt;font style=&quot;font-size: 12px;&quot;&gt;Użytkownik zewn. &lt;br style=&quot;font-size: 12px;&quot;&gt;(client, system (ePUAP))&lt;br&gt;&lt;br&gt;Klient banku&lt;br&gt;&lt;/font&gt;" style="shape=umlActor;verticalLabelPosition=bottom;verticalAlign=top;html=1;outlineConnect=0;fontSize=20;fontColor=#5773FF;" vertex="1" parent="1">
          <mxGeometry x="100" y="230" width="30" height="60" as="geometry" />
        </mxCell>
        <mxCell id="l15-5AjndK2zUUNQ_jJS-4" value="&lt;font style=&quot;font-size: 12px;&quot;&gt;Użytkownik wewn. &lt;br style=&quot;font-size: 12px;&quot;&gt;(pracownicy, wewn. system,&lt;br style=&quot;font-size: 12px;&quot;&gt;element systemu)&lt;br&gt;&lt;br&gt;Bank&lt;br&gt;&lt;/font&gt;" style="shape=umlActor;verticalLabelPosition=bottom;verticalAlign=top;html=1;outlineConnect=0;fontSize=20;fontColor=#5773FF;" vertex="1" parent="1">
          <mxGeometry x="650" y="230" width="30" height="60" as="geometry" />
        </mxCell>
        <mxCell id="l15-5AjndK2zUUNQ_jJS-11" value="Logowanie" style="ellipse;whiteSpace=wrap;html=1;fontSize=12;fontColor=#5773FF;" vertex="1" parent="1">
          <mxGeometry x="342" y="170" width="140" height="70" as="geometry" />
        </mxCell>
        <mxCell id="l15-5AjndK2zUUNQ_jJS-21" style="edgeStyle=orthogonalEdgeStyle;rounded=0;orthogonalLoop=1;jettySize=auto;html=1;fontSize=12;fontColor=#5773FF;" edge="1" parent="1" source="l15-5AjndK2zUUNQ_jJS-12" target="l15-5AjndK2zUUNQ_jJS-4">
          <mxGeometry relative="1" as="geometry" />
        </mxCell>
        <mxCell id="l15-5AjndK2zUUNQ_jJS-12" value="Sprawdzić stan konta" style="ellipse;whiteSpace=wrap;html=1;fontSize=12;fontColor=#5773FF;" vertex="1" parent="1">
          <mxGeometry x="344" y="260" width="140" height="70" as="geometry" />
        </mxCell>
        <mxCell id="l15-5AjndK2zUUNQ_jJS-13" value="Wykonanie przelewu" style="ellipse;whiteSpace=wrap;html=1;fontSize=12;fontColor=#5773FF;" vertex="1" parent="1">
          <mxGeometry x="344" y="350" width="140" height="70" as="geometry" />
        </mxCell>
        <mxCell id="l15-5AjndK2zUUNQ_jJS-20" value="Administracja kontem" style="ellipse;whiteSpace=wrap;html=1;fontSize=12;fontColor=#5773FF;" vertex="1" parent="1">
          <mxGeometry x="342" y="440" width="140" height="70" as="geometry" />
        </mxCell>
        <mxCell id="l15-5AjndK2zUUNQ_jJS-27" style="edgeStyle=orthogonalEdgeStyle;rounded=0;orthogonalLoop=1;jettySize=auto;html=1;fontSize=12;fontColor=#67AB9F;endArrow=none;endFill=0;" edge="1" parent="1" source="l15-5AjndK2zUUNQ_jJS-22" target="l15-5AjndK2zUUNQ_jJS-23">
          <mxGeometry relative="1" as="geometry" />
        </mxCell>
        <mxCell id="l15-5AjndK2zUUNQ_jJS-22" value="Użytkownik zwykły" style="shape=umlActor;verticalLabelPosition=bottom;verticalAlign=top;html=1;outlineConnect=0;fontSize=12;fontColor=#67AB9F;" vertex="1" parent="1">
          <mxGeometry x="550" y="880" width="30" height="60" as="geometry" />
        </mxCell>
        <mxCell id="l15-5AjndK2zUUNQ_jJS-23" value="Użytkownik premium" style="shape=umlActor;verticalLabelPosition=bottom;verticalAlign=top;html=1;outlineConnect=0;fontSize=12;fontColor=#67AB9F;" vertex="1" parent="1">
          <mxGeometry x="730" y="880" width="30" height="60" as="geometry" />
        </mxCell>
        <mxCell id="l15-5AjndK2zUUNQ_jJS-28" style="edgeStyle=orthogonalEdgeStyle;rounded=0;orthogonalLoop=1;jettySize=auto;html=1;fontSize=12;fontColor=#67AB9F;endArrow=none;endFill=0;startArrow=block;startFill=0;" edge="1" parent="1" source="l15-5AjndK2zUUNQ_jJS-24">
          <mxGeometry relative="1" as="geometry">
            <mxPoint x="655.0000000000001" y="910" as="targetPoint" />
          </mxGeometry>
        </mxCell>
        <mxCell id="l15-5AjndK2zUUNQ_jJS-24" value="Użytkownik" style="shape=umlActor;verticalLabelPosition=bottom;verticalAlign=top;html=1;outlineConnect=0;fontSize=12;fontColor=#67AB9F;" vertex="1" parent="1">
          <mxGeometry x="640" y="740" width="30" height="60" as="geometry" />
        </mxCell>
        <mxCell id="l15-5AjndK2zUUNQ_jJS-32" value="&amp;lt;&amp;lt;include&amp;gt;&amp;gt;" style="edgeStyle=orthogonalEdgeStyle;rounded=0;orthogonalLoop=1;jettySize=auto;html=1;fontSize=12;fontColor=#F57AC8;startArrow=none;startFill=0;endArrow=block;endFill=0;dashed=1;" edge="1" parent="1" source="l15-5AjndK2zUUNQ_jJS-29" target="l15-5AjndK2zUUNQ_jJS-30">
          <mxGeometry relative="1" as="geometry" />
        </mxCell>
        <mxCell id="l15-5AjndK2zUUNQ_jJS-29" value="Kichanie" style="ellipse;whiteSpace=wrap;html=1;fontSize=12;fontColor=#F57AC8;" vertex="1" parent="1">
          <mxGeometry x="150" y="800" width="140" height="70" as="geometry" />
        </mxCell>
        <mxCell id="l15-5AjndK2zUUNQ_jJS-30" value="Zamykanie oczu" style="ellipse;whiteSpace=wrap;html=1;fontSize=12;fontColor=#F57AC8;" vertex="1" parent="1">
          <mxGeometry x="260" y="660" width="140" height="70" as="geometry" />
        </mxCell>
        <mxCell id="l15-5AjndK2zUUNQ_jJS-33" value="&amp;lt;&amp;lt;extend&amp;gt;&amp;gt;" style="edgeStyle=orthogonalEdgeStyle;rounded=0;orthogonalLoop=1;jettySize=auto;html=1;entryX=0.5;entryY=1;entryDx=0;entryDy=0;dashed=1;fontSize=12;fontColor=#F57AC8;startArrow=none;startFill=0;endArrow=block;endFill=0;" edge="1" parent="1" source="l15-5AjndK2zUUNQ_jJS-31" target="l15-5AjndK2zUUNQ_jJS-29">
          <mxGeometry relative="1" as="geometry" />
        </mxCell>
        <mxCell id="l15-5AjndK2zUUNQ_jJS-31" value="Mówienie &quot;przepraszam&quot;" style="ellipse;whiteSpace=wrap;html=1;fontSize=12;fontColor=#F57AC8;" vertex="1" parent="1">
          <mxGeometry x="260" y="930" width="140" height="70" as="geometry" />
        </mxCell>
        <mxCell id="l15-5AjndK2zUUNQ_jJS-35" style="edgeStyle=orthogonalEdgeStyle;rounded=0;orthogonalLoop=1;jettySize=auto;html=1;entryX=0;entryY=0.5;entryDx=0;entryDy=0;fontSize=12;fontColor=#F57AC8;startArrow=none;startFill=0;endArrow=block;endFill=1;" edge="1" parent="1" source="l15-5AjndK2zUUNQ_jJS-34" target="l15-5AjndK2zUUNQ_jJS-29">
          <mxGeometry relative="1" as="geometry" />
        </mxCell>
        <mxCell id="l15-5AjndK2zUUNQ_jJS-34" value="&lt;font color=&quot;#f57ac8&quot;&gt;Użytkownik&lt;/font&gt;" style="shape=umlActor;verticalLabelPosition=bottom;verticalAlign=top;html=1;outlineConnect=0;fontSize=12;fontColor=#67AB9F;" vertex="1" parent="1">
          <mxGeometry x="60" y="805" width="30" height="60" as="geometry" />
        </mxCell>
      </root>
    </mxGraphModel>
  </diagram>
</mxfile>
